ISO-10303-21;
HEADER;
/* Generated by software containing ST-Developer
 * from STEP Tools, Inc. (www.steptools.com) 
 */

FILE_DESCRIPTION(
/* description */ (''),
/* implementation_level */ '2;1');

FILE_NAME(
/* name */ 'CamaraVacioF1.step',
/* time_stamp */ '2026-06-10T12:07:06+02:00',
/* author */ (''),
/* organization */ (''),
/* preprocessor_version */ 'ST-DEVELOPER v20.1',
/* originating_system */ 'Autodesk Translation Framework v15.8.0.0',
/* authorisation */ '');

FILE_SCHEMA (('AUTOMOTIVE_DESIGN { 1 0 10303 214 3 1 1 }'));
ENDSEC;

DATA;
#10=MECHANICAL_DESIGN_GEOMETRIC_PRESENTATION_REPRESENTATION('',(#33,#34,
#35),#732);
#11=ITEM_DEFINED_TRANSFORMATION($,$,#396,#453);
#12=ITEM_DEFINED_TRANSFORMATION($,$,#405,#454);
#13=ITEM_DEFINED_TRANSFORMATION($,$,#426,#455);
#14=(
REPRESENTATION_RELATIONSHIP($,$,#749,#748)
REPRESENTATION_RELATIONSHIP_WITH_TRANSFORMATION(#11)
SHAPE_REPRESENTATION_RELATIONSHIP()
);
#15=(
REPRESENTATION_RELATIONSHIP($,$,#750,#748)
REPRESENTATION_RELATIONSHIP_WITH_TRANSFORMATION(#12)
SHAPE_REPRESENTATION_RELATIONSHIP()
);
#16=(
REPRESENTATION_RELATIONSHIP($,$,#751,#748)
REPRESENTATION_RELATIONSHIP_WITH_TRANSFORMATION(#13)
SHAPE_REPRESENTATION_RELATIONSHIP()
);
#17=CONTEXT_DEPENDENT_SHAPE_REPRESENTATION(#14,#745);
#18=CONTEXT_DEPENDENT_SHAPE_REPRESENTATION(#15,#746);
#19=CONTEXT_DEPENDENT_SHAPE_REPRESENTATION(#16,#747);
#20=NEXT_ASSEMBLY_USAGE_OCCURRENCE('Componente1:1','Componente1:1',
'Componente1:1',#753,#754,'Componente1:1');
#21=NEXT_ASSEMBLY_USAGE_OCCURRENCE('Componente2:1','Componente2:1',
'Componente2:1',#753,#755,'Componente2:1');
#22=NEXT_ASSEMBLY_USAGE_OCCURRENCE('Componente3:1','Componente3:1',
'Componente3:1',#753,#756,'Componente3:1');
#23=B_SPLINE_CURVE_WITH_KNOTS('',3,(#669,#670,#671,#672,#673,#674,#675,
#676,#677,#678,#679,#680,#681,#682,#683,#684,#685,#686,#687,#688,#689,#690,
#691,#692,#693,#694,#695,#696,#697,#698,#699,#700,#701,#702),
 .UNSPECIFIED.,.T.,.F.,(4,2,2,2,2,2,2,2,2,2,2,2,2,2,2,2,4),(0.,0.122514087955245,
0.245028175910491,0.36754182004588,0.490055464181269,0.612569108316658,
0.735082752452048,0.857596840407293,0.980110928362537,1.10262501631778,
1.22513910427303,1.34765274840842,1.47016639254381,1.5926800366792,1.71519368081458,
1.83770776876983,1.96022185672508),.UNSPECIFIED.);
#24=TOROIDAL_SURFACE('',#412,29.5000004768372,2.5);
#25=TOROIDAL_SURFACE('',#437,27.,5.);
#26=TOROIDAL_SURFACE('',#447,7.5,3.25);
#27=SHAPE_REPRESENTATION_RELATIONSHIP('SRR','None',#749,#30);
#28=SHAPE_REPRESENTATION_RELATIONSHIP('SRR','None',#750,#31);
#29=SHAPE_REPRESENTATION_RELATIONSHIP('SRR','None',#751,#32);
#30=ADVANCED_BREP_SHAPE_REPRESENTATION('',(#36),#729);
#31=ADVANCED_BREP_SHAPE_REPRESENTATION('',(#37),#730);
#32=ADVANCED_BREP_SHAPE_REPRESENTATION('',(#38),#731);
#33=STYLED_ITEM('',(#772),#36);
#34=STYLED_ITEM('',(#772),#37);
#35=STYLED_ITEM('',(#772),#38);
#36=MANIFOLD_SOLID_BREP('Cuerpo1',#358);
#37=MANIFOLD_SOLID_BREP('Cuerpo1',#359);
#38=MANIFOLD_SOLID_BREP('Cuerpo1',#360);
#39=FACE_BOUND('',#86,.T.);
#40=FACE_BOUND('',#88,.T.);
#41=FACE_BOUND('',#91,.T.);
#42=FACE_BOUND('',#95,.T.);
#43=FACE_BOUND('',#99,.T.);
#44=FACE_BOUND('',#101,.T.);
#45=FACE_BOUND('',#104,.T.);
#46=FACE_BOUND('',#106,.T.);
#47=FACE_BOUND('',#108,.T.);
#48=FACE_BOUND('',#111,.T.);
#49=PLANE('',#403);
#50=PLANE('',#404);
#51=PLANE('',#409);
#52=PLANE('',#419);
#53=PLANE('',#424);
#54=PLANE('',#425);
#55=PLANE('',#430);
#56=PLANE('',#432);
#57=PLANE('',#435);
#58=PLANE('',#443);
#59=FACE_OUTER_BOUND('',#83,.T.);
#60=FACE_OUTER_BOUND('',#84,.T.);
#61=FACE_OUTER_BOUND('',#85,.T.);
#62=FACE_OUTER_BOUND('',#87,.T.);
#63=FACE_OUTER_BOUND('',#89,.T.);
#64=FACE_OUTER_BOUND('',#90,.T.);
#65=FACE_OUTER_BOUND('',#92,.T.);
#66=FACE_OUTER_BOUND('',#93,.T.);
#67=FACE_OUTER_BOUND('',#94,.T.);
#68=FACE_OUTER_BOUND('',#96,.T.);
#69=FACE_OUTER_BOUND('',#97,.T.);
#70=FACE_OUTER_BOUND('',#98,.T.);
#71=FACE_OUTER_BOUND('',#100,.T.);
#72=FACE_OUTER_BOUND('',#102,.T.);
#73=FACE_OUTER_BOUND('',#103,.T.);
#74=FACE_OUTER_BOUND('',#105,.T.);
#75=FACE_OUTER_BOUND('',#107,.T.);
#76=FACE_OUTER_BOUND('',#109,.T.);
#77=FACE_OUTER_BOUND('',#110,.T.);
#78=FACE_OUTER_BOUND('',#112,.T.);
#79=FACE_OUTER_BOUND('',#113,.T.);
#80=FACE_OUTER_BOUND('',#114,.T.);
#81=FACE_OUTER_BOUND('',#115,.T.);
#82=FACE_OUTER_BOUND('',#116,.T.);
#83=EDGE_LOOP('',(#239,#240,#241,#242));
#84=EDGE_LOOP('',(#243,#244,#245,#246));
#85=EDGE_LOOP('',(#247));
#86=EDGE_LOOP('',(#248));
#87=EDGE_LOOP('',(#249));
#88=EDGE_LOOP('',(#250));
#89=EDGE_LOOP('',(#251,#252,#253,#254));
#90=EDGE_LOOP('',(#255));
#91=EDGE_LOOP('',(#256));
#92=EDGE_LOOP('',(#257,#258,#259,#260,#261));
#93=EDGE_LOOP('',(#262,#263,#264,#265,#266));
#94=EDGE_LOOP('',(#267));
#95=EDGE_LOOP('',(#268));
#96=EDGE_LOOP('',(#269,#270,#271,#272));
#97=EDGE_LOOP('',(#273,#274,#275,#276));
#98=EDGE_LOOP('',(#277));
#99=EDGE_LOOP('',(#278));
#100=EDGE_LOOP('',(#279));
#101=EDGE_LOOP('',(#280));
#102=EDGE_LOOP('',(#281,#282,#283,#284));
#103=EDGE_LOOP('',(#285));
#104=EDGE_LOOP('',(#286));
#105=EDGE_LOOP('',(#287));
#106=EDGE_LOOP('',(#288));
#107=EDGE_LOOP('',(#289));
#108=EDGE_LOOP('',(#290));
#109=EDGE_LOOP('',(#291,#292,#293,#294,#295));
#110=EDGE_LOOP('',(#296,#297,#298,#299,#300));
#111=EDGE_LOOP('',(#301));
#112=EDGE_LOOP('',(#302));
#113=EDGE_LOOP('',(#303,#304,#305,#306,#307));
#114=EDGE_LOOP('',(#308,#309,#310,#311,#312,#313));
#115=EDGE_LOOP('',(#314,#315,#316,#317,#318));
#116=EDGE_LOOP('',(#319,#320,#321,#322));
#117=LINE('',#595,#128);
#118=LINE('',#601,#129);
#119=LINE('',#610,#130);
#120=LINE('',#628,#131);
#121=LINE('',#634,#132);
#122=LINE('',#637,#133);
#123=LINE('',#645,#134);
#124=LINE('',#667,#135);
#125=LINE('',#708,#136);
#126=LINE('',#717,#137);
#127=LINE('',#719,#138);
#128=VECTOR('',#464,30.0000004470348);
#129=VECTOR('',#471,28.5);
#130=VECTOR('',#484,30.5);
#131=VECTOR('',#507,32.0000004768372);
#132=VECTOR('',#514,28.0000004172325);
#133=VECTOR('',#519,3.5);
#134=VECTOR('',#530,30.5);
#135=VECTOR('',#559,32.);
#136=VECTOR('',#566,3.5);
#137=VECTOR('',#579,3.5);
#138=VECTOR('',#582,28.);
#139=CIRCLE('',#398,30.0000004470348);
#140=CIRCLE('',#399,30.0000004470348);
#141=CIRCLE('',#401,28.5);
#142=CIRCLE('',#402,28.5);
#143=CIRCLE('',#407,30.5);
#144=CIRCLE('',#408,30.5);
#145=CIRCLE('',#410,28.0000004172325);
#146=CIRCLE('',#411,3.25);
#147=CIRCLE('',#413,32.0000004768372);
#148=CIRCLE('',#414,32.0000004768372);
#149=CIRCLE('',#415,2.5);
#150=CIRCLE('',#416,29.5000004768372);
#151=CIRCLE('',#418,32.0000004768372);
#152=CIRCLE('',#420,3.25);
#153=CIRCLE('',#422,28.0000004172325);
#154=CIRCLE('',#428,30.5);
#155=CIRCLE('',#429,30.5);
#156=CIRCLE('',#431,32.);
#157=CIRCLE('',#433,28.);
#158=CIRCLE('',#434,3.25);
#159=CIRCLE('',#436,28.);
#160=CIRCLE('',#438,27.);
#161=CIRCLE('',#439,5.);
#162=CIRCLE('',#440,32.);
#163=CIRCLE('',#441,32.);
#164=CIRCLE('',#445,3.25);
#165=CIRCLE('',#446,3.25);
#166=CIRCLE('',#448,3.25);
#167=CIRCLE('',#449,3.25);
#168=CIRCLE('',#450,4.25);
#169=VERTEX_POINT('',#592);
#170=VERTEX_POINT('',#594);
#171=VERTEX_POINT('',#598);
#172=VERTEX_POINT('',#600);
#173=VERTEX_POINT('',#607);
#174=VERTEX_POINT('',#609);
#175=VERTEX_POINT('',#613);
#176=VERTEX_POINT('',#615);
#177=VERTEX_POINT('',#618);
#178=VERTEX_POINT('',#619);
#179=VERTEX_POINT('',#622);
#180=VERTEX_POINT('',#626);
#181=VERTEX_POINT('',#630);
#182=VERTEX_POINT('',#633);
#183=VERTEX_POINT('',#642);
#184=VERTEX_POINT('',#644);
#185=VERTEX_POINT('',#648);
#186=VERTEX_POINT('',#651);
#187=VERTEX_POINT('',#653);
#188=VERTEX_POINT('',#656);
#189=VERTEX_POINT('',#659);
#190=VERTEX_POINT('',#661);
#191=VERTEX_POINT('',#663);
#192=VERTEX_POINT('',#668);
#193=VERTEX_POINT('',#705);
#194=VERTEX_POINT('',#706);
#195=VERTEX_POINT('',#711);
#196=VERTEX_POINT('',#712);
#197=EDGE_CURVE('',#169,#169,#139,.T.);
#198=EDGE_CURVE('',#169,#170,#117,.T.);
#199=EDGE_CURVE('',#170,#170,#140,.T.);
#200=EDGE_CURVE('',#171,#171,#141,.T.);
#201=EDGE_CURVE('',#171,#172,#118,.T.);
#202=EDGE_CURVE('',#172,#172,#142,.T.);
#203=EDGE_CURVE('',#173,#173,#143,.T.);
#204=EDGE_CURVE('',#173,#174,#119,.T.);
#205=EDGE_CURVE('',#174,#174,#144,.T.);
#206=EDGE_CURVE('',#175,#175,#145,.T.);
#207=EDGE_CURVE('',#176,#176,#146,.T.);
#208=EDGE_CURVE('',#177,#178,#147,.T.);
#209=EDGE_CURVE('',#178,#177,#148,.T.);
#210=EDGE_CURVE('',#177,#179,#149,.T.);
#211=EDGE_CURVE('',#179,#179,#150,.T.);
#212=EDGE_CURVE('',#180,#180,#151,.T.);
#213=EDGE_CURVE('',#180,#178,#120,.T.);
#214=EDGE_CURVE('',#181,#181,#152,.T.);
#215=EDGE_CURVE('',#175,#182,#121,.T.);
#216=EDGE_CURVE('',#182,#182,#153,.T.);
#217=EDGE_CURVE('',#176,#181,#122,.T.);
#218=EDGE_CURVE('',#183,#183,#154,.T.);
#219=EDGE_CURVE('',#183,#184,#123,.T.);
#220=EDGE_CURVE('',#184,#184,#155,.T.);
#221=EDGE_CURVE('',#185,#185,#156,.T.);
#222=EDGE_CURVE('',#186,#186,#157,.T.);
#223=EDGE_CURVE('',#187,#187,#158,.T.);
#224=EDGE_CURVE('',#188,#188,#159,.T.);
#225=EDGE_CURVE('',#189,#189,#160,.T.);
#226=EDGE_CURVE('',#189,#190,#161,.T.);
#227=EDGE_CURVE('',#190,#191,#162,.T.);
#228=EDGE_CURVE('',#191,#190,#163,.T.);
#229=EDGE_CURVE('',#191,#185,#124,.T.);
#230=EDGE_CURVE('',#192,#192,#23,.T.);
#231=EDGE_CURVE('',#193,#194,#164,.T.);
#232=EDGE_CURVE('',#193,#192,#125,.T.);
#233=EDGE_CURVE('',#194,#193,#165,.T.);
#234=EDGE_CURVE('',#195,#196,#166,.T.);
#235=EDGE_CURVE('',#196,#195,#167,.T.);
#236=EDGE_CURVE('',#196,#194,#168,.T.);
#237=EDGE_CURVE('',#187,#195,#126,.T.);
#238=EDGE_CURVE('',#186,#188,#127,.T.);
#239=ORIENTED_EDGE('',*,*,#197,.F.);
#240=ORIENTED_EDGE('',*,*,#198,.T.);
#241=ORIENTED_EDGE('',*,*,#199,.F.);
#242=ORIENTED_EDGE('',*,*,#198,.F.);
#243=ORIENTED_EDGE('',*,*,#200,.F.);
#244=ORIENTED_EDGE('',*,*,#201,.T.);
#245=ORIENTED_EDGE('',*,*,#202,.F.);
#246=ORIENTED_EDGE('',*,*,#201,.F.);
#247=ORIENTED_EDGE('',*,*,#197,.T.);
#248=ORIENTED_EDGE('',*,*,#202,.T.);
#249=ORIENTED_EDGE('',*,*,#199,.T.);
#250=ORIENTED_EDGE('',*,*,#200,.T.);
#251=ORIENTED_EDGE('',*,*,#203,.F.);
#252=ORIENTED_EDGE('',*,*,#204,.T.);
#253=ORIENTED_EDGE('',*,*,#205,.T.);
#254=ORIENTED_EDGE('',*,*,#204,.F.);
#255=ORIENTED_EDGE('',*,*,#206,.F.);
#256=ORIENTED_EDGE('',*,*,#207,.F.);
#257=ORIENTED_EDGE('',*,*,#208,.T.);
#258=ORIENTED_EDGE('',*,*,#209,.T.);
#259=ORIENTED_EDGE('',*,*,#210,.T.);
#260=ORIENTED_EDGE('',*,*,#211,.T.);
#261=ORIENTED_EDGE('',*,*,#210,.F.);
#262=ORIENTED_EDGE('',*,*,#212,.F.);
#263=ORIENTED_EDGE('',*,*,#213,.T.);
#264=ORIENTED_EDGE('',*,*,#208,.F.);
#265=ORIENTED_EDGE('',*,*,#209,.F.);
#266=ORIENTED_EDGE('',*,*,#213,.F.);
#267=ORIENTED_EDGE('',*,*,#211,.F.);
#268=ORIENTED_EDGE('',*,*,#214,.T.);
#269=ORIENTED_EDGE('',*,*,#206,.T.);
#270=ORIENTED_EDGE('',*,*,#215,.T.);
#271=ORIENTED_EDGE('',*,*,#216,.F.);
#272=ORIENTED_EDGE('',*,*,#215,.F.);
#273=ORIENTED_EDGE('',*,*,#207,.T.);
#274=ORIENTED_EDGE('',*,*,#217,.T.);
#275=ORIENTED_EDGE('',*,*,#214,.F.);
#276=ORIENTED_EDGE('',*,*,#217,.F.);
#277=ORIENTED_EDGE('',*,*,#205,.F.);
#278=ORIENTED_EDGE('',*,*,#216,.T.);
#279=ORIENTED_EDGE('',*,*,#212,.T.);
#280=ORIENTED_EDGE('',*,*,#203,.T.);
#281=ORIENTED_EDGE('',*,*,#218,.F.);
#282=ORIENTED_EDGE('',*,*,#219,.T.);
#283=ORIENTED_EDGE('',*,*,#220,.T.);
#284=ORIENTED_EDGE('',*,*,#219,.F.);
#285=ORIENTED_EDGE('',*,*,#221,.F.);
#286=ORIENTED_EDGE('',*,*,#218,.T.);
#287=ORIENTED_EDGE('',*,*,#222,.F.);
#288=ORIENTED_EDGE('',*,*,#223,.F.);
#289=ORIENTED_EDGE('',*,*,#220,.F.);
#290=ORIENTED_EDGE('',*,*,#224,.F.);
#291=ORIENTED_EDGE('',*,*,#225,.T.);
#292=ORIENTED_EDGE('',*,*,#226,.T.);
#293=ORIENTED_EDGE('',*,*,#227,.T.);
#294=ORIENTED_EDGE('',*,*,#228,.T.);
#295=ORIENTED_EDGE('',*,*,#226,.F.);
#296=ORIENTED_EDGE('',*,*,#228,.F.);
#297=ORIENTED_EDGE('',*,*,#229,.T.);
#298=ORIENTED_EDGE('',*,*,#221,.T.);
#299=ORIENTED_EDGE('',*,*,#229,.F.);
#300=ORIENTED_EDGE('',*,*,#227,.F.);
#301=ORIENTED_EDGE('',*,*,#230,.T.);
#302=ORIENTED_EDGE('',*,*,#225,.F.);
#303=ORIENTED_EDGE('',*,*,#231,.F.);
#304=ORIENTED_EDGE('',*,*,#232,.T.);
#305=ORIENTED_EDGE('',*,*,#230,.F.);
#306=ORIENTED_EDGE('',*,*,#232,.F.);
#307=ORIENTED_EDGE('',*,*,#233,.F.);
#308=ORIENTED_EDGE('',*,*,#234,.F.);
#309=ORIENTED_EDGE('',*,*,#235,.F.);
#310=ORIENTED_EDGE('',*,*,#236,.T.);
#311=ORIENTED_EDGE('',*,*,#233,.T.);
#312=ORIENTED_EDGE('',*,*,#231,.T.);
#313=ORIENTED_EDGE('',*,*,#236,.F.);
#314=ORIENTED_EDGE('',*,*,#223,.T.);
#315=ORIENTED_EDGE('',*,*,#237,.T.);
#316=ORIENTED_EDGE('',*,*,#234,.T.);
#317=ORIENTED_EDGE('',*,*,#235,.T.);
#318=ORIENTED_EDGE('',*,*,#237,.F.);
#319=ORIENTED_EDGE('',*,*,#222,.T.);
#320=ORIENTED_EDGE('',*,*,#238,.T.);
#321=ORIENTED_EDGE('',*,*,#224,.T.);
#322=ORIENTED_EDGE('',*,*,#238,.F.);
#323=CYLINDRICAL_SURFACE('',#397,30.0000004470348);
#324=CYLINDRICAL_SURFACE('',#400,28.5);
#325=CYLINDRICAL_SURFACE('',#406,30.5);
#326=CYLINDRICAL_SURFACE('',#417,32.0000004768372);
#327=CYLINDRICAL_SURFACE('',#421,28.0000004172325);
#328=CYLINDRICAL_SURFACE('',#423,3.25);
#329=CYLINDRICAL_SURFACE('',#427,30.5);
#330=CYLINDRICAL_SURFACE('',#442,32.);
#331=CYLINDRICAL_SURFACE('',#444,3.25);
#332=CYLINDRICAL_SURFACE('',#451,3.25);
#333=CYLINDRICAL_SURFACE('',#452,28.);
#334=ADVANCED_FACE('',(#59),#323,.T.);
#335=ADVANCED_FACE('',(#60),#324,.F.);
#336=ADVANCED_FACE('',(#61,#39),#49,.T.);
#337=ADVANCED_FACE('',(#62,#40),#50,.F.);
#338=ADVANCED_FACE('',(#63),#325,.F.);
#339=ADVANCED_FACE('',(#64,#41),#51,.F.);
#340=ADVANCED_FACE('',(#65),#24,.T.);
#341=ADVANCED_FACE('',(#66),#326,.T.);
#342=ADVANCED_FACE('',(#67,#42),#52,.T.);
#343=ADVANCED_FACE('',(#68),#327,.T.);
#344=ADVANCED_FACE('',(#69),#328,.F.);
#345=ADVANCED_FACE('',(#70,#43),#53,.T.);
#346=ADVANCED_FACE('',(#71,#44),#54,.F.);
#347=ADVANCED_FACE('',(#72),#329,.F.);
#348=ADVANCED_FACE('',(#73,#45),#55,.F.);
#349=ADVANCED_FACE('',(#74,#46),#56,.F.);
#350=ADVANCED_FACE('',(#75,#47),#57,.T.);
#351=ADVANCED_FACE('',(#76),#25,.T.);
#352=ADVANCED_FACE('',(#77,#48),#330,.T.);
#353=ADVANCED_FACE('',(#78),#58,.T.);
#354=ADVANCED_FACE('',(#79),#331,.F.);
#355=ADVANCED_FACE('',(#80),#26,.F.);
#356=ADVANCED_FACE('',(#81),#332,.F.);
#357=ADVANCED_FACE('',(#82),#333,.T.);
#358=CLOSED_SHELL('',(#334,#335,#336,#337));
#359=CLOSED_SHELL('',(#338,#339,#340,#341,#342,#343,#344,#345,#346));
#360=CLOSED_SHELL('',(#347,#348,#349,#350,#351,#352,#353,#354,#355,#356,
#357));
#361=DERIVED_UNIT_ELEMENT(#367,1.);
#362=DERIVED_UNIT_ELEMENT(#734,-3.);
#363=DERIVED_UNIT_ELEMENT(#367,1.);
#364=DERIVED_UNIT_ELEMENT(#734,-3.);
#365=DERIVED_UNIT_ELEMENT(#367,1.);
#366=DERIVED_UNIT_ELEMENT(#734,-3.);
#367=(
MASS_UNIT()
NAMED_UNIT(*)
SI_UNIT(.KILO.,.GRAM.)
);
#368=DERIVED_UNIT((#361,#362));
#369=DERIVED_UNIT((#363,#364));
#370=DERIVED_UNIT((#365,#366));
#371=MEASURE_REPRESENTATION_ITEM('density measure',
POSITIVE_RATIO_MEASURE(7850.),#368);
#372=MEASURE_REPRESENTATION_ITEM('density measure',
POSITIVE_RATIO_MEASURE(7850.),#369);
#373=MEASURE_REPRESENTATION_ITEM('density measure',
POSITIVE_RATIO_MEASURE(7850.),#370);
#374=PROPERTY_DEFINITION_REPRESENTATION(#389,#380);
#375=PROPERTY_DEFINITION_REPRESENTATION(#390,#381);
#376=PROPERTY_DEFINITION_REPRESENTATION(#391,#382);
#377=PROPERTY_DEFINITION_REPRESENTATION(#392,#383);
#378=PROPERTY_DEFINITION_REPRESENTATION(#393,#384);
#379=PROPERTY_DEFINITION_REPRESENTATION(#394,#385);
#380=REPRESENTATION('material name',(#386),#729);
#381=REPRESENTATION('density',(#371),#729);
#382=REPRESENTATION('material name',(#387),#730);
#383=REPRESENTATION('density',(#372),#730);
#384=REPRESENTATION('material name',(#388),#731);
#385=REPRESENTATION('density',(#373),#731);
#386=DESCRIPTIVE_REPRESENTATION_ITEM('Acero','Acero');
#387=DESCRIPTIVE_REPRESENTATION_ITEM('Acero','Acero');
#388=DESCRIPTIVE_REPRESENTATION_ITEM('Acero','Acero');
#389=PROPERTY_DEFINITION('material property','material name',#754);
#390=PROPERTY_DEFINITION('material property','density of part',#754);
#391=PROPERTY_DEFINITION('material property','material name',#755);
#392=PROPERTY_DEFINITION('material property','density of part',#755);
#393=PROPERTY_DEFINITION('material property','material name',#756);
#394=PROPERTY_DEFINITION('material property','density of part',#756);
#395=AXIS2_PLACEMENT_3D('',#589,#456,#457);
#396=AXIS2_PLACEMENT_3D('',#590,#458,#459);
#397=AXIS2_PLACEMENT_3D('',#591,#460,#461);
#398=AXIS2_PLACEMENT_3D('',#593,#462,#463);
#399=AXIS2_PLACEMENT_3D('',#596,#465,#466);
#400=AXIS2_PLACEMENT_3D('',#597,#467,#468);
#401=AXIS2_PLACEMENT_3D('',#599,#469,#470);
#402=AXIS2_PLACEMENT_3D('',#602,#472,#473);
#403=AXIS2_PLACEMENT_3D('',#603,#474,#475);
#404=AXIS2_PLACEMENT_3D('',#604,#476,#477);
#405=AXIS2_PLACEMENT_3D('',#605,#478,#479);
#406=AXIS2_PLACEMENT_3D('',#606,#480,#481);
#407=AXIS2_PLACEMENT_3D('',#608,#482,#483);
#408=AXIS2_PLACEMENT_3D('',#611,#485,#486);
#409=AXIS2_PLACEMENT_3D('',#612,#487,#488);
#410=AXIS2_PLACEMENT_3D('',#614,#489,#490);
#411=AXIS2_PLACEMENT_3D('',#616,#491,#492);
#412=AXIS2_PLACEMENT_3D('',#617,#493,#494);
#413=AXIS2_PLACEMENT_3D('',#620,#495,#496);
#414=AXIS2_PLACEMENT_3D('',#621,#497,#498);
#415=AXIS2_PLACEMENT_3D('',#623,#499,#500);
#416=AXIS2_PLACEMENT_3D('',#624,#501,#502);
#417=AXIS2_PLACEMENT_3D('',#625,#503,#504);
#418=AXIS2_PLACEMENT_3D('',#627,#505,#506);
#419=AXIS2_PLACEMENT_3D('',#629,#508,#509);
#420=AXIS2_PLACEMENT_3D('',#631,#510,#511);
#421=AXIS2_PLACEMENT_3D('',#632,#512,#513);
#422=AXIS2_PLACEMENT_3D('',#635,#515,#516);
#423=AXIS2_PLACEMENT_3D('',#636,#517,#518);
#424=AXIS2_PLACEMENT_3D('',#638,#520,#521);
#425=AXIS2_PLACEMENT_3D('',#639,#522,#523);
#426=AXIS2_PLACEMENT_3D('',#640,#524,#525);
#427=AXIS2_PLACEMENT_3D('',#641,#526,#527);
#428=AXIS2_PLACEMENT_3D('',#643,#528,#529);
#429=AXIS2_PLACEMENT_3D('',#646,#531,#532);
#430=AXIS2_PLACEMENT_3D('',#647,#533,#534);
#431=AXIS2_PLACEMENT_3D('',#649,#535,#536);
#432=AXIS2_PLACEMENT_3D('',#650,#537,#538);
#433=AXIS2_PLACEMENT_3D('',#652,#539,#540);
#434=AXIS2_PLACEMENT_3D('',#654,#541,#542);
#435=AXIS2_PLACEMENT_3D('',#655,#543,#544);
#436=AXIS2_PLACEMENT_3D('',#657,#545,#546);
#437=AXIS2_PLACEMENT_3D('',#658,#547,#548);
#438=AXIS2_PLACEMENT_3D('',#660,#549,#550);
#439=AXIS2_PLACEMENT_3D('',#662,#551,#552);
#440=AXIS2_PLACEMENT_3D('',#664,#553,#554);
#441=AXIS2_PLACEMENT_3D('',#665,#555,#556);
#442=AXIS2_PLACEMENT_3D('',#666,#557,#558);
#443=AXIS2_PLACEMENT_3D('',#703,#560,#561);
#444=AXIS2_PLACEMENT_3D('',#704,#562,#563);
#445=AXIS2_PLACEMENT_3D('',#707,#564,#565);
#446=AXIS2_PLACEMENT_3D('',#709,#567,#568);
#447=AXIS2_PLACEMENT_3D('',#710,#569,#570);
#448=AXIS2_PLACEMENT_3D('',#713,#571,#572);
#449=AXIS2_PLACEMENT_3D('',#714,#573,#574);
#450=AXIS2_PLACEMENT_3D('',#715,#575,#576);
#451=AXIS2_PLACEMENT_3D('',#716,#577,#578);
#452=AXIS2_PLACEMENT_3D('',#718,#580,#581);
#453=AXIS2_PLACEMENT_3D('',#720,#583,#584);
#454=AXIS2_PLACEMENT_3D('',#721,#585,#586);
#455=AXIS2_PLACEMENT_3D('',#722,#587,#588);
#456=DIRECTION('axis',(0.,0.,1.));
#457=DIRECTION('refdir',(1.,0.,0.));
#458=DIRECTION('axis',(0.,0.,1.));
#459=DIRECTION('refdir',(1.,0.,0.));
#460=DIRECTION('center_axis',(-1.,0.,0.));
#461=DIRECTION('ref_axis',(0.,1.,0.));
#462=DIRECTION('center_axis',(-1.,0.,0.));
#463=DIRECTION('ref_axis',(0.,1.,0.));
#464=DIRECTION('',(1.,0.,0.));
#465=DIRECTION('center_axis',(1.,0.,0.));
#466=DIRECTION('ref_axis',(0.,1.,0.));
#467=DIRECTION('center_axis',(-1.,0.,-2.22044604925031E-16));
#468=DIRECTION('ref_axis',(0.,1.,0.));
#469=DIRECTION('center_axis',(-1.,0.,-2.22044604925031E-16));
#470=DIRECTION('ref_axis',(0.,1.,0.));
#471=DIRECTION('',(-1.,0.,-2.22044604925031E-16));
#472=DIRECTION('center_axis',(1.,0.,2.22044604925031E-16));
#473=DIRECTION('ref_axis',(0.,1.,0.));
#474=DIRECTION('center_axis',(-1.,0.,-2.22044604925031E-16));
#475=DIRECTION('ref_axis',(-2.22044604925031E-16,0.,1.));
#476=DIRECTION('center_axis',(-1.,0.,-2.22044604925031E-16));
#477=DIRECTION('ref_axis',(-2.22044604925031E-16,0.,1.));
#478=DIRECTION('axis',(0.,0.,1.));
#479=DIRECTION('refdir',(1.,0.,0.));
#480=DIRECTION('center_axis',(-1.,0.,0.));
#481=DIRECTION('ref_axis',(0.,1.,-6.12323426292584E-17));
#482=DIRECTION('center_axis',(-1.,0.,-2.22044604925031E-16));
#483=DIRECTION('ref_axis',(0.,1.,-6.12323426292584E-17));
#484=DIRECTION('',(-1.,0.,0.));
#485=DIRECTION('center_axis',(-1.,2.67189072378708E-24,-2.67189074468958E-24));
#486=DIRECTION('ref_axis',(2.67189071842116E-24,1.,-6.12323426292584E-17));
#487=DIRECTION('center_axis',(-1.,0.,-2.22044604925031E-16));
#488=DIRECTION('ref_axis',(0.,-1.,0.));
#489=DIRECTION('center_axis',(-1.,0.,-2.22044604925031E-16));
#490=DIRECTION('ref_axis',(0.,1.,0.));
#491=DIRECTION('center_axis',(1.,0.,2.22044604925031E-16));
#492=DIRECTION('ref_axis',(0.,1.,0.));
#493=DIRECTION('center_axis',(1.,0.,2.22044604925031E-16));
#494=DIRECTION('ref_axis',(0.,-1.,-1.11022300808154E-16));
#495=DIRECTION('center_axis',(-1.,0.,-2.22044604925031E-16));
#496=DIRECTION('ref_axis',(3.08148786510183E-32,-1.,-1.38777876010193E-16));
#497=DIRECTION('center_axis',(-1.,0.,-2.22044604925031E-16));
#498=DIRECTION('ref_axis',(3.08148786510183E-32,-1.,-1.38777876010193E-16));
#499=DIRECTION('center_axis',(-2.22044604925031E-16,0.,1.));
#500=DIRECTION('ref_axis',(0.,1.,0.));
#501=DIRECTION('center_axis',(1.,0.,2.22044604925031E-16));
#502=DIRECTION('ref_axis',(0.,-1.,-1.31721373673844E-16));
#503=DIRECTION('center_axis',(-1.,0.,-2.22044604925031E-16));
#504=DIRECTION('ref_axis',(0.,1.,0.));
#505=DIRECTION('center_axis',(1.,0.,2.22044604925031E-16));
#506=DIRECTION('ref_axis',(0.,1.,0.));
#507=DIRECTION('',(-1.,0.,-2.22044604925031E-16));
#508=DIRECTION('center_axis',(-1.,0.,-2.22044604925031E-16));
#509=DIRECTION('ref_axis',(0.,-1.,0.));
#510=DIRECTION('center_axis',(1.,0.,2.22044604925031E-16));
#511=DIRECTION('ref_axis',(0.,1.,0.));
#512=DIRECTION('center_axis',(1.,0.,3.70074341541718E-16));
#513=DIRECTION('ref_axis',(0.,1.,0.));
#514=DIRECTION('',(-1.,0.,-3.70074341541718E-16));
#515=DIRECTION('center_axis',(-1.,0.,-2.22044604925031E-16));
#516=DIRECTION('ref_axis',(0.,1.,0.));
#517=DIRECTION('center_axis',(-1.,0.,-2.22044604925031E-16));
#518=DIRECTION('ref_axis',(0.,1.,0.));
#519=DIRECTION('',(-1.,0.,-2.22044604925031E-16));
#520=DIRECTION('center_axis',(1.,0.,2.22044604925031E-16));
#521=DIRECTION('ref_axis',(0.,1.,0.));
#522=DIRECTION('center_axis',(-1.,0.,-2.22044604925031E-16));
#523=DIRECTION('ref_axis',(0.,-1.,0.));
#524=DIRECTION('axis',(0.,0.,1.));
#525=DIRECTION('refdir',(1.,0.,0.));
#526=DIRECTION('center_axis',(1.,0.,0.));
#527=DIRECTION('ref_axis',(0.,-1.,0.));
#528=DIRECTION('center_axis',(1.,0.,0.));
#529=DIRECTION('ref_axis',(0.,-1.,0.));
#530=DIRECTION('',(1.,0.,0.));
#531=DIRECTION('center_axis',(1.,0.,0.));
#532=DIRECTION('ref_axis',(0.,-1.,0.));
#533=DIRECTION('center_axis',(1.,0.,0.));
#534=DIRECTION('ref_axis',(0.,1.,0.));
#535=DIRECTION('center_axis',(1.,0.,0.));
#536=DIRECTION('ref_axis',(0.,1.,0.));
#537=DIRECTION('center_axis',(1.,0.,0.));
#538=DIRECTION('ref_axis',(0.,1.,0.));
#539=DIRECTION('center_axis',(1.,0.,0.));
#540=DIRECTION('ref_axis',(0.,-1.,0.));
#541=DIRECTION('center_axis',(-1.,0.,0.));
#542=DIRECTION('ref_axis',(0.,1.,0.));
#543=DIRECTION('center_axis',(-1.,0.,0.));
#544=DIRECTION('ref_axis',(0.,-1.,0.));
#545=DIRECTION('center_axis',(-1.,0.,0.));
#546=DIRECTION('ref_axis',(0.,-1.,0.));
#547=DIRECTION('center_axis',(1.,0.,0.));
#548=DIRECTION('ref_axis',(0.,0.,-1.));
#549=DIRECTION('center_axis',(-1.,0.,0.));
#550=DIRECTION('ref_axis',(0.,1.,0.));
#551=DIRECTION('center_axis',(0.,-1.,-1.22464679914735E-16));
#552=DIRECTION('ref_axis',(0.,-1.22464679914735E-16,1.));
#553=DIRECTION('center_axis',(1.,0.,0.));
#554=DIRECTION('ref_axis',(0.,1.,0.));
#555=DIRECTION('center_axis',(1.,0.,0.));
#556=DIRECTION('ref_axis',(0.,1.,0.));
#557=DIRECTION('center_axis',(1.,0.,0.));
#558=DIRECTION('ref_axis',(0.,1.,0.));
#559=DIRECTION('',(-1.,0.,0.));
#560=DIRECTION('center_axis',(1.,0.,0.));
#561=DIRECTION('ref_axis',(0.,1.,0.));
#562=DIRECTION('center_axis',(0.,0.,1.));
#563=DIRECTION('ref_axis',(0.,1.,0.));
#564=DIRECTION('center_axis',(1.17145536458252E-15,0.,1.));
#565=DIRECTION('ref_axis',(0.,1.,0.));
#566=DIRECTION('',(0.,0.,1.));
#567=DIRECTION('center_axis',(1.17145536458252E-15,0.,1.));
#568=DIRECTION('ref_axis',(0.,1.,0.));
#569=DIRECTION('center_axis',(0.,-1.,0.));
#570=DIRECTION('ref_axis',(0.,0.,-1.));
#571=DIRECTION('center_axis',(1.,0.,0.));
#572=DIRECTION('ref_axis',(0.,1.,0.));
#573=DIRECTION('center_axis',(1.,0.,0.));
#574=DIRECTION('ref_axis',(0.,1.,0.));
#575=DIRECTION('center_axis',(0.,-1.,0.));
#576=DIRECTION('ref_axis',(0.,0.,-1.));
#577=DIRECTION('center_axis',(1.,0.,0.));
#578=DIRECTION('ref_axis',(0.,1.,0.));
#579=DIRECTION('',(1.,0.,0.));
#580=DIRECTION('center_axis',(1.,0.,0.));
#581=DIRECTION('ref_axis',(0.,-1.,0.));
#582=DIRECTION('',(1.,0.,0.));
#583=DIRECTION('',(0.,0.,1.));
#584=DIRECTION('',(1.,0.,0.));
#585=DIRECTION('',(-7.15199851069389E-17,0.,1.));
#586=DIRECTION('',(1.,6.12323399573677E-17,7.15199851069389E-17));
#587=DIRECTION('',(0.,0.,1.));
#588=DIRECTION('',(1.,0.,0.));
#589=CARTESIAN_POINT('',(0.,0.,0.));
#590=CARTESIAN_POINT('',(0.,0.,0.));
#591=CARTESIAN_POINT('Origin',(-1.33226762955019E-14,0.,30.));
#592=CARTESIAN_POINT('',(-445.,-30.0000004470348,30.));
#593=CARTESIAN_POINT('Origin',(-445.,0.,30.));
#594=CARTESIAN_POINT('',(-1.33226762955019E-14,-30.0000004470348,30.));
#595=CARTESIAN_POINT('',(-1.33226762955019E-14,-30.0000004470348,30.));
#596=CARTESIAN_POINT('Origin',(-1.33226762955019E-14,0.,30.));
#597=CARTESIAN_POINT('Origin',(-1.33226762955019E-14,0.,30.));
#598=CARTESIAN_POINT('',(-1.33226762955019E-14,-28.5,30.));
#599=CARTESIAN_POINT('Origin',(-1.33226762955019E-14,0.,30.));
#600=CARTESIAN_POINT('',(-445.,-28.5,29.9999999999999));
#601=CARTESIAN_POINT('',(-1.33226762955019E-14,-28.5,30.));
#602=CARTESIAN_POINT('Origin',(-445.,0.,29.9999999999999));
#603=CARTESIAN_POINT('Origin',(-445.,0.,29.9999999999999));
#604=CARTESIAN_POINT('Origin',(-1.33226762955019E-14,0.,30.));
#605=CARTESIAN_POINT('',(0.,0.,0.));
#606=CARTESIAN_POINT('Origin',(-475.,9.65897811099962E-22,30.));
#607=CARTESIAN_POINT('',(-475.,-30.5,30.));
#608=CARTESIAN_POINT('Origin',(-475.,9.65897811099962E-22,30.));
#609=CARTESIAN_POINT('',(-485.,-30.5,30.));
#610=CARTESIAN_POINT('',(-475.,-30.5,30.));
#611=CARTESIAN_POINT('Origin',(-485.,9.65897811099962E-22,30.));
#612=CARTESIAN_POINT('Origin',(-483.,0.,29.9999999999999));
#613=CARTESIAN_POINT('',(-483.,-28.0000004172325,29.9999999999999));
#614=CARTESIAN_POINT('Origin',(-483.,0.,29.9999999999999));
#615=CARTESIAN_POINT('',(-483.,-3.25,29.9999999999999));
#616=CARTESIAN_POINT('Origin',(-483.,0.,29.9999999999999));
#617=CARTESIAN_POINT('Origin',(-492.5,0.,29.9999999999999));
#618=CARTESIAN_POINT('',(-492.5,32.0000004768372,29.9999999999999));
#619=CARTESIAN_POINT('',(-492.5,-32.0000004768372,29.9999999999999));
#620=CARTESIAN_POINT('Origin',(-492.5,0.,29.9999999999999));
#621=CARTESIAN_POINT('Origin',(-492.5,0.,29.9999999999999));
#622=CARTESIAN_POINT('',(-495.,29.5000004768372,29.9999999999999));
#623=CARTESIAN_POINT('Origin',(-492.5,29.5000004768372,29.9999999999999));
#624=CARTESIAN_POINT('Origin',(-495.,0.,29.9999999999999));
#625=CARTESIAN_POINT('Origin',(-475.,0.,29.9999999999999));
#626=CARTESIAN_POINT('',(-475.,-32.0000004768372,29.9999999999999));
#627=CARTESIAN_POINT('Origin',(-475.,0.,29.9999999999999));
#628=CARTESIAN_POINT('',(-475.,-32.0000004768372,29.9999999999999));
#629=CARTESIAN_POINT('Origin',(-495.,0.,29.9999999999999));
#630=CARTESIAN_POINT('',(-495.,-3.25,29.9999999999999));
#631=CARTESIAN_POINT('Origin',(-495.,0.,29.9999999999999));
#632=CARTESIAN_POINT('Origin',(-485.,0.,29.9999999999999));
#633=CARTESIAN_POINT('',(-485.,-28.0000004172325,29.9999999999999));
#634=CARTESIAN_POINT('',(-485.,-28.0000004172325,29.9999999999999));
#635=CARTESIAN_POINT('Origin',(-485.,0.,29.9999999999999));
#636=CARTESIAN_POINT('Origin',(-465.,0.,29.9999999999999));
#637=CARTESIAN_POINT('',(-465.,-3.25,29.9999999999999));
#638=CARTESIAN_POINT('Origin',(-485.,0.,29.9999999999999));
#639=CARTESIAN_POINT('Origin',(-475.,0.,29.9999999999999));
#640=CARTESIAN_POINT('',(0.,0.,0.));
#641=CARTESIAN_POINT('Origin',(32.,0.,30.));
#642=CARTESIAN_POINT('',(32.,30.5,30.));
#643=CARTESIAN_POINT('Origin',(32.,0.,30.));
#644=CARTESIAN_POINT('',(47.,30.5,30.));
#645=CARTESIAN_POINT('',(32.,30.5,30.));
#646=CARTESIAN_POINT('Origin',(47.,0.,30.));
#647=CARTESIAN_POINT('Origin',(32.,0.,30.));
#648=CARTESIAN_POINT('',(32.,-32.,30.));
#649=CARTESIAN_POINT('Origin',(32.,0.,30.));
#650=CARTESIAN_POINT('Origin',(42.,0.,30.));
#651=CARTESIAN_POINT('',(42.,28.,30.));
#652=CARTESIAN_POINT('Origin',(42.,0.,30.));
#653=CARTESIAN_POINT('',(42.,-3.25,30.));
#654=CARTESIAN_POINT('Origin',(42.,0.,30.));
#655=CARTESIAN_POINT('Origin',(47.,0.,30.));
#656=CARTESIAN_POINT('',(47.,28.,30.));
#657=CARTESIAN_POINT('Origin',(47.,0.,30.));
#658=CARTESIAN_POINT('Origin',(60.,0.,30.));
#659=CARTESIAN_POINT('',(65.,-3.30654635769785E-15,57.));
#660=CARTESIAN_POINT('Origin',(65.,0.,30.));
#661=CARTESIAN_POINT('',(60.,-3.91886975727153E-15,62.));
#662=CARTESIAN_POINT('Origin',(60.,-3.30654635769785E-15,57.));
#663=CARTESIAN_POINT('',(60.,-32.,30.));
#664=CARTESIAN_POINT('Origin',(60.,0.,30.));
#665=CARTESIAN_POINT('Origin',(60.,0.,30.));
#666=CARTESIAN_POINT('Origin',(35.,0.,30.));
#667=CARTESIAN_POINT('',(35.,-32.,30.));
#668=CARTESIAN_POINT('',(55.,-3.25,61.8345331362029));
#669=CARTESIAN_POINT('Ctrl Pts',(55.,-3.25,61.8345331362029));
#670=CARTESIAN_POINT('Ctrl Pts',(54.5916197068158,-3.25,61.8345331362029));
#671=CARTESIAN_POINT('Ctrl Pts',(54.1562124314117,-3.16832740810459,61.8432011949542));
#672=CARTESIAN_POINT('Ctrl Pts',(53.3555635861339,-2.83656571443628,61.874467144266));
#673=CARTESIAN_POINT('Ctrl Pts',(52.9902979028111,-2.58649198052367,61.8966089428981));
#674=CARTESIAN_POINT('Ctrl Pts',(52.4135090642166,-2.00970314192915,61.9381385728267));
#675=CARTESIAN_POINT('Ctrl Pts',(52.163434514782,-1.64443700082692,61.960230440591));
#676=CARTESIAN_POINT('Ctrl Pts',(51.8316722132681,-0.843786621055114,61.9913820739306));
#677=CARTESIAN_POINT('Ctrl Pts',(51.75,-0.40837881378463,62.));
#678=CARTESIAN_POINT('Ctrl Pts',(51.75,0.408378813784633,62.));
#679=CARTESIAN_POINT('Ctrl Pts',(51.8316722132681,0.843786621055118,61.9913820739306));
#680=CARTESIAN_POINT('Ctrl Pts',(52.163434514782,1.64443700082692,61.960230440591));
#681=CARTESIAN_POINT('Ctrl Pts',(52.4135090642166,2.00970314192916,61.9381385728267));
#682=CARTESIAN_POINT('Ctrl Pts',(52.9902979028111,2.58649198052368,61.8966089428981));
#683=CARTESIAN_POINT('Ctrl Pts',(53.3555635861339,2.83656571443629,61.874467144266));
#684=CARTESIAN_POINT('Ctrl Pts',(54.1562124314117,3.16832740810459,61.8432011949542));
#685=CARTESIAN_POINT('Ctrl Pts',(54.5916197068158,3.25,61.8345331362029));
#686=CARTESIAN_POINT('Ctrl Pts',(55.4083802931842,3.25,61.8345331362029));
#687=CARTESIAN_POINT('Ctrl Pts',(55.8437875685883,3.16832740810459,61.8432011949542));
#688=CARTESIAN_POINT('Ctrl Pts',(56.6444364138661,2.83656571443628,61.874467144266));
#689=CARTESIAN_POINT('Ctrl Pts',(57.0097020971889,2.58649198052367,61.8966089428981));
#690=CARTESIAN_POINT('Ctrl Pts',(57.5864909357834,2.00970314192915,61.9381385728267));
#691=CARTESIAN_POINT('Ctrl Pts',(57.836565485218,1.64443700082692,61.960230440591));
#692=CARTESIAN_POINT('Ctrl Pts',(58.1683277867319,0.843786621055113,61.9913820739306));
#693=CARTESIAN_POINT('Ctrl Pts',(58.25,0.40837881378463,62.));
#694=CARTESIAN_POINT('Ctrl Pts',(58.25,-0.408378813784632,62.));
#695=CARTESIAN_POINT('Ctrl Pts',(58.1683277867319,-0.843786621055115,61.9913820739306));
#696=CARTESIAN_POINT('Ctrl Pts',(57.836565485218,-1.64443700082692,61.960230440591));
#697=CARTESIAN_POINT('Ctrl Pts',(57.5864909357834,-2.00970314192916,61.9381385728267));
#698=CARTESIAN_POINT('Ctrl Pts',(57.0097020971889,-2.58649198052368,61.8966089428981));
#699=CARTESIAN_POINT('Ctrl Pts',(56.6444364138662,-2.83656571443628,61.874467144266));
#700=CARTESIAN_POINT('Ctrl Pts',(55.8437875685883,-3.16832740810459,61.8432011949542));
#701=CARTESIAN_POINT('Ctrl Pts',(55.4083802931842,-3.25,61.8345331362029));
#702=CARTESIAN_POINT('Ctrl Pts',(55.,-3.25,61.8345331362029));
#703=CARTESIAN_POINT('Origin',(65.,0.,30.));
#704=CARTESIAN_POINT('Origin',(55.,0.,37.5));
#705=CARTESIAN_POINT('',(55.,-3.25,37.5));
#706=CARTESIAN_POINT('',(51.75,3.9801020972289E-16,37.5));
#707=CARTESIAN_POINT('Origin',(55.,0.,37.5));
#708=CARTESIAN_POINT('',(55.,-3.25,37.5));
#709=CARTESIAN_POINT('Origin',(55.,0.,37.5));
#710=CARTESIAN_POINT('Origin',(47.5,0.,37.5));
#711=CARTESIAN_POINT('',(47.5,-3.25,30.));
#712=CARTESIAN_POINT('',(47.5,3.9801020972289E-16,33.25));
#713=CARTESIAN_POINT('Origin',(47.5,0.,30.));
#714=CARTESIAN_POINT('Origin',(47.5,0.,30.));
#715=CARTESIAN_POINT('Origin',(47.5,3.9801020972289E-16,37.5));
#716=CARTESIAN_POINT('Origin',(30.,0.,30.));
#717=CARTESIAN_POINT('',(30.,-3.25,30.));
#718=CARTESIAN_POINT('Origin',(35.,0.,30.));
#719=CARTESIAN_POINT('',(35.,28.,30.));
#720=CARTESIAN_POINT('',(0.,0.,0.));
#721=CARTESIAN_POINT('',(40.,2.96976848793233E-14,2.88738564123245E-14));
#722=CARTESIAN_POINT('',(-48.,0.,0.));
#723=UNCERTAINTY_MEASURE_WITH_UNIT(LENGTH_MEASURE(0.01),#733,
'DISTANCE_ACCURACY_VALUE',
'Maximum model space distance between geometric entities at asserted c
onnectivities');
#724=UNCERTAINTY_MEASURE_WITH_UNIT(LENGTH_MEASURE(0.01),#733,
'DISTANCE_ACCURACY_VALUE',
'Maximum model space distance between geometric entities at asserted c
onnectivities');
#725=UNCERTAINTY_MEASURE_WITH_UNIT(LENGTH_MEASURE(0.01),#733,
'DISTANCE_ACCURACY_VALUE',
'Maximum model space distance between geometric entities at asserted c
onnectivities');
#726=UNCERTAINTY_MEASURE_WITH_UNIT(LENGTH_MEASURE(0.01),#733,
'DISTANCE_ACCURACY_VALUE',
'Maximum model space distance between geometric entities at asserted c
onnectivities');
#727=UNCERTAINTY_MEASURE_WITH_UNIT(LENGTH_MEASURE(0.01),#733,
'DISTANCE_ACCURACY_VALUE',
'Maximum model space distance between geometric entities at asserted c
onnectivities');
#728=(
GEOMETRIC_REPRESENTATION_CONTEXT(3)
GLOBAL_UNCERTAINTY_ASSIGNED_CONTEXT((#723))
GLOBAL_UNIT_ASSIGNED_CONTEXT((#733,#735,#736))
REPRESENTATION_CONTEXT('','3D')
);
#729=(
GEOMETRIC_REPRESENTATION_CONTEXT(3)
GLOBAL_UNCERTAINTY_ASSIGNED_CONTEXT((#724))
GLOBAL_UNIT_ASSIGNED_CONTEXT((#733,#735,#736))
REPRESENTATION_CONTEXT('','3D')
);
#730=(
GEOMETRIC_REPRESENTATION_CONTEXT(3)
GLOBAL_UNCERTAINTY_ASSIGNED_CONTEXT((#725))
GLOBAL_UNIT_ASSIGNED_CONTEXT((#733,#735,#736))
REPRESENTATION_CONTEXT('','3D')
);
#731=(
GEOMETRIC_REPRESENTATION_CONTEXT(3)
GLOBAL_UNCERTAINTY_ASSIGNED_CONTEXT((#726))
GLOBAL_UNIT_ASSIGNED_CONTEXT((#733,#735,#736))
REPRESENTATION_CONTEXT('','3D')
);
#732=(
GEOMETRIC_REPRESENTATION_CONTEXT(3)
GLOBAL_UNCERTAINTY_ASSIGNED_CONTEXT((#727))
GLOBAL_UNIT_ASSIGNED_CONTEXT((#733,#735,#736))
REPRESENTATION_CONTEXT('','3D')
);
#733=(
LENGTH_UNIT()
NAMED_UNIT(*)
SI_UNIT(.MILLI.,.METRE.)
);
#734=(
LENGTH_UNIT()
NAMED_UNIT(*)
SI_UNIT($,.METRE.)
);
#735=(
NAMED_UNIT(*)
PLANE_ANGLE_UNIT()
SI_UNIT($,.RADIAN.)
);
#736=(
NAMED_UNIT(*)
SI_UNIT($,.STERADIAN.)
SOLID_ANGLE_UNIT()
);
#737=SHAPE_DEFINITION_REPRESENTATION(#741,#748);
#738=SHAPE_DEFINITION_REPRESENTATION(#742,#749);
#739=SHAPE_DEFINITION_REPRESENTATION(#743,#750);
#740=SHAPE_DEFINITION_REPRESENTATION(#744,#751);
#741=PRODUCT_DEFINITION_SHAPE('',$,#753);
#742=PRODUCT_DEFINITION_SHAPE('',$,#754);
#743=PRODUCT_DEFINITION_SHAPE('',$,#755);
#744=PRODUCT_DEFINITION_SHAPE('',$,#756);
#745=PRODUCT_DEFINITION_SHAPE($,$,#20);
#746=PRODUCT_DEFINITION_SHAPE($,$,#21);
#747=PRODUCT_DEFINITION_SHAPE($,$,#22);
#748=SHAPE_REPRESENTATION('',(#395,#453,#454,#455),#728);
#749=SHAPE_REPRESENTATION('',(#396),#729);
#750=SHAPE_REPRESENTATION('',(#405),#730);
#751=SHAPE_REPRESENTATION('',(#426),#731);
#752=PRODUCT_DEFINITION_CONTEXT('part definition',#766,'design');
#753=PRODUCT_DEFINITION('CamaraVacio','CamaraVacio v10',#757,#752);
#754=PRODUCT_DEFINITION('Componente1','Componente1',#758,#752);
#755=PRODUCT_DEFINITION('Componente2','Componente2',#759,#752);
#756=PRODUCT_DEFINITION('Componente3','Componente3',#760,#752);
#757=PRODUCT_DEFINITION_FORMATION('',$,#768);
#758=PRODUCT_DEFINITION_FORMATION('',$,#769);
#759=PRODUCT_DEFINITION_FORMATION('',$,#770);
#760=PRODUCT_DEFINITION_FORMATION('',$,#771);
#761=PRODUCT_RELATED_PRODUCT_CATEGORY('CamaraVacio v10',
'CamaraVacio v10',(#768));
#762=PRODUCT_RELATED_PRODUCT_CATEGORY('Componente1','Componente1',(#769));
#763=PRODUCT_RELATED_PRODUCT_CATEGORY('Componente2','Componente2',(#770));
#764=PRODUCT_RELATED_PRODUCT_CATEGORY('Componente3','Componente3',(#771));
#765=APPLICATION_PROTOCOL_DEFINITION('international standard',
'automotive_design',2009,#766);
#766=APPLICATION_CONTEXT(
'Core Data for Automotive Mechanical Design Process');
#767=PRODUCT_CONTEXT('part definition',#766,'mechanical');
#768=PRODUCT('CamaraVacio','CamaraVacio v10',$,(#767));
#769=PRODUCT('Componente1','Componente1',$,(#767));
#770=PRODUCT('Componente2','Componente2',$,(#767));
#771=PRODUCT('Componente3','Componente3',$,(#767));
#772=PRESENTATION_STYLE_ASSIGNMENT((#773));
#773=SURFACE_STYLE_USAGE(.BOTH.,#774);
#774=SURFACE_SIDE_STYLE('',(#775));
#775=SURFACE_STYLE_FILL_AREA(#776);
#776=FILL_AREA_STYLE('Acero - Satinado',(#777));
#777=FILL_AREA_STYLE_COLOUR('Acero - Satinado',#778);
#778=COLOUR_RGB('Acero - Satinado',0.627450980392157,0.627450980392157,
0.627450980392157);
ENDSEC;
END-ISO-10303-21;
